<svg width="32" height="32" viewBox="0 0 32 32" fill="none" xmlns="http://www.w3.org/2000/svg">
<g clip-path="url(#clip0_605_780)">
<rect width="32" height="32" rx="6" fill="white"/>
<path d="M9.28181 4.48334C9.28181 7.95484 6.4676 10.7691 2.99609 10.7691C6.4676 10.7691 9.28181 13.5833 9.28181 17.0548C9.28181 13.5833 12.096 10.7691 15.5675 10.7691C12.096 10.7691 9.28181 7.95484 9.28181 4.48334Z" fill="#2C0140"/>
<path d="M21.8537 7.91193C21.8537 12.6458 18.0161 16.4834 13.2822 16.4834C18.0161 16.4834 21.8537 20.3209 21.8537 25.0548C21.8537 20.3209 25.6912 16.4834 30.4251 16.4834C25.6912 16.4834 21.8537 12.6458 21.8537 7.91193Z" fill="#2C0140"/>
<path d="M11.5674 19.3405C11.5674 21.5496 9.77652 23.3405 7.56738 23.3405C9.77652 23.3405 11.5674 25.1313 11.5674 27.3405C11.5674 25.1313 13.3582 23.3405 15.5674 23.3405C13.3582 23.3405 11.5674 21.5496 11.5674 19.3405Z" fill="#2C0140"/>
</g>
<defs>
<clipPath id="clip0_605_780">
<rect width="32" height="32" fill="white"/>
</clipPath>
</defs>
</svg>
