<svg width="28" height="28" viewBox="0 0 28 28" fill="none" xmlns="http://www.w3.org/2000/svg">
<path d="M8.12109 4.79791C8.12109 7.83548 5.65866 10.2979 2.62109 10.2979C5.65866 10.2979 8.12109 12.7603 8.12109 15.7979C8.12109 12.7603 10.5835 10.2979 13.6211 10.2979C10.5835 10.2979 8.12109 7.83548 8.12109 4.79791Z" fill="#2C0140"/>
<path d="M19.1211 7.79791C19.1211 11.94 15.7632 15.2979 11.6211 15.2979C15.7632 15.2979 19.1211 18.6558 19.1211 22.7979C19.1211 18.6558 22.479 15.2979 26.6211 15.2979C22.479 15.2979 19.1211 11.94 19.1211 7.79791Z" fill="#2C0140"/>
<path d="M10.1211 17.7979C10.1211 19.7309 8.55409 21.2979 6.62109 21.2979C8.55409 21.2979 10.1211 22.8649 10.1211 24.7979C10.1211 22.8649 11.6881 21.2979 13.6211 21.2979C11.6881 21.2979 10.1211 19.7309 10.1211 17.7979Z" fill="#2C0140"/>
</svg>
