<svg width="15" height="15" viewBox="0 0 15 15" fill="none" xmlns="http://www.w3.org/2000/svg">
<g clip-path="url(#clip0_601_850)">
<path d="M14.2279 6.15621H13.6752V6.12773H7.5V8.87227H11.3777C10.812 10.4699 9.29184 11.6168 7.5 11.6168C5.2265 11.6168 3.3832 9.7735 3.3832 7.5C3.3832 5.2265 5.2265 3.3832 7.5 3.3832C8.54944 3.3832 9.50419 3.7791 10.2312 4.42578L12.1719 2.48506C10.9464 1.34299 9.30727 0.638672 7.5 0.638672C3.71083 0.638672 0.638672 3.71083 0.638672 7.5C0.638672 11.2892 3.71083 14.3613 7.5 14.3613C11.2892 14.3613 14.3613 11.2892 14.3613 7.5C14.3613 7.03995 14.314 6.59087 14.2279 6.15621Z" fill="#FFC107"/>
<path d="M1.42969 4.3064L3.68398 5.95963C4.29395 4.44945 5.77119 3.3832 7.4999 3.3832C8.54934 3.3832 9.5041 3.7791 10.2311 4.42578L12.1718 2.48506C10.9463 1.34299 9.30718 0.638672 7.4999 0.638672C4.86447 0.638672 2.57896 2.12655 1.42969 4.3064Z" fill="#FF3D00"/>
<path d="M7.49941 14.3613C9.27169 14.3613 10.882 13.683 12.0996 12.5801L9.97601 10.7831C9.26399 11.3246 8.39394 11.6175 7.49941 11.6168C5.71478 11.6168 4.19945 10.4788 3.62859 8.89075L1.39111 10.6147C2.52666 12.8367 4.83276 14.3613 7.49941 14.3613Z" fill="#4CAF50"/>
<path d="M14.2279 6.15622H13.6752V6.12775H7.5V8.87228H11.3777C11.1071 9.63265 10.6196 10.2971 9.97557 10.7835L9.9766 10.7828L12.1002 12.5798C11.9499 12.7163 14.3613 10.9307 14.3613 7.50001C14.3613 7.03996 14.314 6.59089 14.2279 6.15622Z" fill="#1976D2"/>
</g>
<defs>
<clipPath id="clip0_601_850">
<rect width="15" height="15" fill="white"/>
</clipPath>
</defs>
</svg>
