<svg width="116" height="30" viewBox="0 0 116 30" fill="none" xmlns="http://www.w3.org/2000/svg">
<g filter="url(#filter0_d_605_771)">
<path d="M36 23V11.2143H37.2271V12.5759H37.3778C37.4711 12.4271 37.6002 12.2374 37.7653 12.0067C37.9339 11.7723 38.1743 11.564 38.4865 11.3817C38.8022 11.1957 39.2292 11.1027 39.7674 11.1027C40.4634 11.1027 41.077 11.2831 41.608 11.644C42.139 12.0048 42.5534 12.5164 42.8512 13.1786C43.149 13.8408 43.2979 14.622 43.2979 15.5223C43.2979 16.4301 43.149 17.2169 42.8512 17.8828C42.5534 18.545 42.1408 19.0584 41.6134 19.423C41.0859 19.7839 40.4778 19.9643 39.7889 19.9643C39.2579 19.9643 38.8327 19.8731 38.5134 19.6908C38.194 19.5048 37.9483 19.2946 37.776 19.0603C37.6038 18.8222 37.4711 18.625 37.3778 18.4687H37.2701V23H36ZM37.2486 15.5C37.2486 16.1473 37.3401 16.7184 37.5231 17.2132C37.7061 17.7042 37.9734 18.0893 38.325 18.3683C38.6766 18.6436 39.1072 18.7813 39.6167 18.7813C40.1477 18.7813 40.5908 18.6362 40.946 18.346C41.3048 18.0521 41.5739 17.6577 41.7533 17.1629C41.9363 16.6644 42.0278 16.1101 42.0278 15.5C42.0278 14.8973 41.9381 14.3542 41.7587 13.8705C41.5829 13.3832 41.3156 12.9981 40.9568 12.7154C40.6016 12.4289 40.1549 12.2857 39.6167 12.2857C39.1 12.2857 38.6659 12.4215 38.3142 12.6931C37.9626 12.9609 37.6971 13.3367 37.5177 13.8203C37.3383 14.3002 37.2486 14.8601 37.2486 15.5Z" fill="#2C0140"/>
<path d="M45.2354 19.7857V11.2143H46.5055V19.7857H45.2354ZM45.8812 9.78571C45.6337 9.78571 45.4202 9.69829 45.2408 9.52344C45.065 9.34859 44.9771 9.13839 44.9771 8.89286C44.9771 8.64732 45.065 8.43713 45.2408 8.26228C45.4202 8.08743 45.6337 8 45.8812 8C46.1288 8 46.3405 8.08743 46.5163 8.26228C46.6957 8.43713 46.7854 8.64732 46.7854 8.89286C46.7854 9.13839 46.6957 9.34859 46.5163 9.52344C46.3405 9.69829 46.1288 9.78571 45.8812 9.78571Z" fill="#2C0140"/>
<path d="M50.0159 16.6607L49.9944 15.0312H50.2527L53.8694 11.2143H55.4409L51.5874 15.2545H51.4798L50.0159 16.6607ZM48.8319 19.7857V8.35714H50.102V19.7857H48.8319ZM54.0847 19.7857L50.8555 15.5446L51.7597 14.6295L55.6992 19.7857H54.0847Z" fill="#2C0140"/>
<path d="M60.0936 19.9643C59.3473 19.9643 58.6925 19.7801 58.1292 19.4118C57.5695 19.0435 57.1317 18.5283 56.816 17.8661C56.5038 17.2039 56.3478 16.4301 56.3478 15.5446C56.3478 14.6518 56.5038 13.8724 56.816 13.2065C57.1317 12.5406 57.5695 12.0234 58.1292 11.6551C58.6925 11.2868 59.3473 11.1027 60.0936 11.1027C60.8399 11.1027 61.4929 11.2868 62.0526 11.6551C62.6159 12.0234 63.0537 12.5406 63.3658 13.2065C63.6815 13.8724 63.8394 14.6518 63.8394 15.5446C63.8394 16.4301 63.6815 17.2039 63.3658 17.8661C63.0537 18.5283 62.6159 19.0435 62.0526 19.4118C61.4929 19.7801 60.8399 19.9643 60.0936 19.9643ZM60.0936 18.7813C60.6605 18.7813 61.1269 18.6306 61.4929 18.3292C61.8589 18.0279 62.1298 17.6317 62.3056 17.1406C62.4814 16.6496 62.5693 16.1176 62.5693 15.5446C62.5693 14.9717 62.4814 14.4379 62.3056 13.9431C62.1298 13.4483 61.8589 13.0484 61.4929 12.7433C61.1269 12.4382 60.6605 12.2857 60.0936 12.2857C59.5267 12.2857 59.0603 12.4382 58.6943 12.7433C58.3283 13.0484 58.0574 13.4483 57.8816 13.9431C57.7058 14.4379 57.6179 14.9717 57.6179 15.5446C57.6179 16.1176 57.7058 16.6496 57.8816 17.1406C58.0574 17.6317 58.3283 18.0279 58.6943 18.3292C59.0603 18.6306 59.5267 18.7813 60.0936 18.7813Z" fill="#2C0140"/>
<path d="M66.704 19.875C66.4384 19.875 66.2106 19.7764 66.0205 19.5792C65.8303 19.3821 65.7352 19.1458 65.7352 18.8705C65.7352 18.5952 65.8303 18.359 66.0205 18.1618C66.2106 17.9647 66.4384 17.8661 66.704 17.8661C66.9695 17.8661 67.1973 17.9647 67.3875 18.1618C67.5776 18.359 67.6727 18.5952 67.6727 18.8705C67.6727 19.0528 67.6279 19.2202 67.5382 19.3728C67.452 19.5253 67.3354 19.6481 67.1883 19.7411C67.0448 19.8304 66.8834 19.875 66.704 19.875Z" fill="#2C0140"/>
<path d="M75.8075 13.1339L74.6665 13.4688C74.5948 13.2716 74.4889 13.08 74.349 12.894C74.2127 12.7042 74.0261 12.548 73.7893 12.4252C73.5525 12.3025 73.2493 12.2411 72.8797 12.2411C72.3738 12.2411 71.9522 12.362 71.615 12.6038C71.2813 12.8419 71.1145 13.1451 71.1145 13.5134C71.1145 13.8408 71.2293 14.0993 71.4589 14.2891C71.6885 14.4788 72.0473 14.6369 72.5353 14.7634L73.7624 15.0759C74.5015 15.2619 75.0522 15.5465 75.4146 15.9297C75.777 16.3092 75.9582 16.7984 75.9582 17.3973C75.9582 17.8884 75.8219 18.3274 75.5492 18.7143C75.2801 19.1012 74.9033 19.4063 74.419 19.6295C73.9346 19.8527 73.3713 19.9643 72.729 19.9643C71.8859 19.9643 71.188 19.7746 70.6355 19.3951C70.0829 19.0156 69.7331 18.4613 69.586 17.7321L70.7915 17.4196C70.9064 17.881 71.1234 18.2269 71.4428 18.4576C71.7657 18.6882 72.1873 18.8036 72.7075 18.8036C73.2995 18.8036 73.7695 18.6734 74.1176 18.4129C74.4692 18.1488 74.645 17.8326 74.645 17.4643C74.645 17.1667 74.5445 16.9174 74.3436 16.7165C74.1427 16.5119 73.8341 16.3594 73.4179 16.2589L72.0401 15.9241C71.2831 15.7381 70.727 15.4498 70.3717 15.0592C70.0201 14.6648 69.8443 14.1719 69.8443 13.5804C69.8443 13.0967 69.9753 12.6689 70.2372 12.2969C70.5027 11.9249 70.8633 11.6328 71.319 11.4208C71.7782 11.2087 72.2985 11.1027 72.8797 11.1027C73.6978 11.1027 74.34 11.2887 74.8065 11.6607C75.2765 12.0327 75.6102 12.5238 75.8075 13.1339Z" fill="#2C0140"/>
<path d="M77.8701 23V11.2143H79.0972V12.5759H79.2479C79.3412 12.4271 79.4704 12.2374 79.6354 12.0067C79.804 11.7723 80.0444 11.564 80.3566 11.3817C80.6723 11.1957 81.0993 11.1027 81.6375 11.1027C82.3336 11.1027 82.9471 11.2831 83.4781 11.644C84.0091 12.0048 84.4235 12.5164 84.7213 13.1786C85.0191 13.8408 85.168 14.622 85.168 15.5223C85.168 16.4301 85.0191 17.2169 84.7213 17.8828C84.4235 18.545 84.0109 19.0584 83.4835 19.423C82.9561 19.7839 82.3479 19.9643 81.659 19.9643C81.128 19.9643 80.7028 19.8731 80.3835 19.6908C80.0642 19.5048 79.8184 19.2946 79.6462 19.0603C79.474 18.8222 79.3412 18.625 79.2479 18.4687H79.1403V23H77.8701ZM79.1187 15.5C79.1187 16.1473 79.2102 16.7184 79.3932 17.2132C79.5762 17.7042 79.8435 18.0893 80.1951 18.3683C80.5468 18.6436 80.9773 18.7813 81.4868 18.7813C82.0178 18.7813 82.4609 18.6362 82.8161 18.346C83.1749 18.0521 83.444 17.6577 83.6234 17.1629C83.8064 16.6644 83.8979 16.1101 83.8979 15.5C83.8979 14.8973 83.8082 14.3542 83.6288 13.8705C83.453 13.3832 83.1857 12.9981 82.8269 12.7154C82.4717 12.4289 82.025 12.2857 81.4868 12.2857C80.9701 12.2857 80.536 12.4215 80.1844 12.6931C79.8327 12.9609 79.5672 13.3367 79.3878 13.8203C79.2084 14.3002 79.1187 14.8601 79.1187 15.5Z" fill="#2C0140"/>
<path d="M89.5382 19.9866C89.0143 19.9866 88.5389 19.8843 88.112 19.6797C87.685 19.4714 87.3459 19.1719 87.0948 18.7813C86.8436 18.3869 86.718 17.9107 86.718 17.3527C86.718 16.8616 86.8113 16.4635 86.9979 16.1585C87.1845 15.8497 87.4338 15.6079 87.746 15.433C88.0581 15.2582 88.4026 15.128 88.7793 15.0424C89.1596 14.9531 89.5418 14.8824 89.9257 14.8304C90.428 14.7634 90.8352 14.7132 91.1474 14.6797C91.4631 14.6425 91.6927 14.5811 91.8363 14.4955C91.9834 14.41 92.0569 14.2612 92.0569 14.0491V14.0045C92.0569 13.4539 91.9116 13.026 91.621 12.721C91.3339 12.4159 90.898 12.2634 90.3132 12.2634C89.7068 12.2634 89.2314 12.401 88.887 12.6763C88.5425 12.9516 88.3003 13.2455 88.1604 13.558L86.9548 13.1116C87.1701 12.5908 87.4572 12.1853 87.816 11.8951C88.1783 11.6012 88.573 11.3966 89 11.2812C89.4305 11.1622 89.8539 11.1027 90.2701 11.1027C90.5356 11.1027 90.8406 11.1362 91.185 11.2031C91.5331 11.2664 91.8686 11.3984 92.1915 11.5993C92.518 11.8002 92.7889 12.1034 93.0041 12.5089C93.2194 12.9144 93.3271 13.4576 93.3271 14.1384V19.7857H92.0569V18.625H91.9923C91.9062 18.811 91.7627 19.01 91.5618 19.2221C91.3609 19.4342 91.0936 19.6146 90.7599 19.7634C90.4262 19.9122 90.019 19.9866 89.5382 19.9866ZM89.7319 18.8036C90.2342 18.8036 90.6576 18.7013 91.0021 18.4967C91.3501 18.292 91.612 18.0279 91.7878 17.7042C91.9672 17.3806 92.0569 17.0402 92.0569 16.683V15.4777C92.0031 15.5446 91.8847 15.606 91.7017 15.6618C91.5223 15.7139 91.3142 15.7604 91.0774 15.8013C90.8442 15.8385 90.6164 15.872 90.3939 15.9018C90.175 15.9278 89.9974 15.9501 89.8611 15.9687C89.531 16.0134 89.2224 16.0859 88.9354 16.1864C88.652 16.2831 88.4223 16.4301 88.2465 16.6272C88.0743 16.8207 87.9882 17.0848 87.9882 17.4196C87.9882 17.8772 88.1514 18.2232 88.4779 18.4576C88.808 18.6882 89.226 18.8036 89.7319 18.8036Z" fill="#2C0140"/>
<path d="M99.0037 19.9643C98.2287 19.9643 97.5613 19.7746 97.0016 19.3951C96.4419 19.0156 96.0113 18.4929 95.7099 17.827C95.4085 17.1611 95.2578 16.4003 95.2578 15.5446C95.2578 14.6741 95.4121 13.9059 95.7207 13.24C96.0328 12.5703 96.467 12.0476 97.0231 11.6719C97.5828 11.2924 98.2358 11.1027 98.9821 11.1027C99.5634 11.1027 100.087 11.2143 100.554 11.4375C101.02 11.6607 101.402 11.9732 101.7 12.375C101.998 12.7768 102.183 13.2455 102.254 13.7813H100.984C100.887 13.3906 100.672 13.0446 100.338 12.7433C100.008 12.4382 99.5634 12.2857 99.0037 12.2857C98.5085 12.2857 98.0744 12.4196 97.7012 12.6875C97.3317 12.9516 97.0428 13.3255 96.8347 13.8092C96.6302 14.2891 96.528 14.8527 96.528 15.5C96.528 16.1622 96.6284 16.7388 96.8294 17.2299C97.0339 17.721 97.3209 18.1023 97.6905 18.3739C98.0636 18.6455 98.5013 18.7813 99.0037 18.7813C99.3338 18.7813 99.6333 18.7217 99.9024 18.6027C100.172 18.4836 100.399 18.3125 100.586 18.0893C100.773 17.8661 100.905 17.5982 100.984 17.2857H102.254C102.183 17.7917 102.005 18.2474 101.722 18.6529C101.442 19.0547 101.07 19.3746 100.607 19.6127C100.148 19.8471 99.6136 19.9643 99.0037 19.9643Z" fill="#2C0140"/>
<path d="M107.577 19.9643C106.781 19.9643 106.093 19.782 105.516 19.4174C104.942 19.0491 104.499 18.5357 104.186 17.8772C103.878 17.215 103.724 16.4449 103.724 15.567C103.724 14.689 103.878 13.9152 104.186 13.2455C104.499 12.5722 104.933 12.0476 105.489 11.6719C106.049 11.2924 106.702 11.1027 107.448 11.1027C107.878 11.1027 108.304 11.1771 108.723 11.3259C109.143 11.4747 109.525 11.7165 109.87 12.0513C110.214 12.3824 110.489 12.8214 110.693 13.3683C110.898 13.9152 111 14.5885 111 15.3884V15.9464H104.628V14.808H109.708C109.708 14.3244 109.615 13.8929 109.428 13.5134C109.245 13.1339 108.984 12.8344 108.643 12.615C108.305 12.3955 107.907 12.2857 107.448 12.2857C106.942 12.2857 106.504 12.4159 106.135 12.6763C105.769 12.933 105.487 13.2679 105.29 13.6808C105.092 14.0937 104.994 14.5365 104.994 15.0089V15.7679C104.994 16.4152 105.101 16.9639 105.317 17.4141C105.536 17.8605 105.839 18.2009 106.226 18.4353C106.614 18.6659 107.064 18.7813 107.577 18.7813C107.911 18.7813 108.212 18.7329 108.481 18.6362C108.754 18.5357 108.989 18.3869 109.186 18.1897C109.384 17.9888 109.536 17.7396 109.644 17.442L110.871 17.7991C110.742 18.2307 110.525 18.6101 110.22 18.9375C109.915 19.2612 109.538 19.5141 109.089 19.6964C108.641 19.875 108.137 19.9643 107.577 19.9643Z" fill="#2C0140"/>
<path d="M10.5 5C10.5 8.03757 8.03757 10.5 5 10.5C8.03757 10.5 10.5 12.9624 10.5 16C10.5 12.9624 12.9624 10.5 16 10.5C12.9624 10.5 10.5 8.03757 10.5 5Z" fill="#2C0140"/>
<path d="M21.5 8C21.5 12.1421 18.1421 15.5 14 15.5C18.1421 15.5 21.5 18.8579 21.5 23C21.5 18.8579 24.8579 15.5 29 15.5C24.8579 15.5 21.5 12.1421 21.5 8Z" fill="#2C0140"/>
<path d="M12.5 18C12.5 19.933 10.933 21.5 9 21.5C10.933 21.5 12.5 23.067 12.5 25C12.5 23.067 14.067 21.5 16 21.5C14.067 21.5 12.5 19.933 12.5 18Z" fill="#2C0140"/>
</g>
<defs>
<filter id="filter0_d_605_771" x="0" y="-1" width="117" height="33" filterUnits="userSpaceOnUse" color-interpolation-filters="sRGB">
<feFlood flood-opacity="0" result="BackgroundImageFix"/>
<feColorMatrix in="SourceAlpha" type="matrix" values="0 0 0 0 0 0 0 0 0 0 0 0 0 0 0 0 0 0 127 0" result="hardAlpha"/>
<feOffset/>
<feGaussianBlur stdDeviation="2.5"/>
<feComposite in2="hardAlpha" operator="out"/>
<feColorMatrix type="matrix" values="0 0 0 0 0.2 0 0 0 0 0 0 0 0 0 1 0 0 0 0.11 0"/>
<feBlend mode="normal" in2="BackgroundImageFix" result="effect1_dropShadow_605_771"/>
<feBlend mode="normal" in="SourceGraphic" in2="effect1_dropShadow_605_771" result="shape"/>
</filter>
</defs>
</svg>
