<svg width="62" height="80" viewBox="0 0 62 80" fill="none" xmlns="http://www.w3.org/2000/svg">
<path d="M1.71629 79.0469V70.186H2.67286V71.2097H2.79034C2.86306 71.0978 2.96375 70.9552 3.09241 70.7818C3.22387 70.6056 3.41127 70.4489 3.65461 70.3119C3.90074 70.172 4.23359 70.1021 4.65314 70.1021C5.19576 70.1021 5.67404 70.2378 6.088 70.5091C6.50196 70.7804 6.82501 71.165 7.05716 71.6628C7.28931 72.1607 7.40539 72.7481 7.40539 73.4249C7.40539 74.1074 7.28931 74.699 7.05716 75.1996C6.82501 75.6975 6.50335 76.0835 6.0922 76.3576C5.68104 76.6289 5.20694 76.7646 4.66992 76.7646C4.25596 76.7646 3.92452 76.696 3.67559 76.559C3.42665 76.4191 3.23506 76.2611 3.1008 76.0849C2.96655 75.9059 2.86306 75.7576 2.79034 75.6402H2.70643V79.0469H1.71629ZM2.68964 73.4082C2.68964 73.8948 2.76097 74.3242 2.90361 74.6962C3.04626 75.0654 3.25464 75.3549 3.52874 75.5647C3.80285 75.7716 4.13849 75.8751 4.53566 75.8751C4.94962 75.8751 5.29505 75.766 5.57195 75.5479C5.85165 75.3269 6.06143 75.0304 6.20128 74.6584C6.34393 74.2836 6.41525 73.8669 6.41525 73.4082C6.41525 72.9551 6.34532 72.5467 6.20547 72.1831C6.06842 71.8167 5.86004 71.5272 5.58034 71.3146C5.30344 71.0992 4.95521 70.9916 4.53566 70.9916C4.1329 70.9916 3.79446 71.0936 3.52035 71.2978C3.24625 71.4992 3.03927 71.7817 2.89942 72.1453C2.75957 72.5061 2.68964 72.9271 2.68964 73.4082ZM8.91577 76.6303V70.186H9.90591V76.6303H8.91577ZM9.41923 69.112C9.22623 69.112 9.05981 69.0462 8.91996 68.9148C8.78291 68.7833 8.71438 68.6253 8.71438 68.4407C8.71438 68.2561 8.78291 68.0981 8.91996 67.9666C9.05981 67.8351 9.22623 67.7694 9.41923 67.7694C9.61222 67.7694 9.77724 67.8351 9.9143 67.9666C10.0541 68.0981 10.1241 68.2561 10.1241 68.4407C10.1241 68.6253 10.0541 68.7833 9.9143 68.9148C9.77724 69.0462 9.61222 69.112 9.41923 69.112ZM12.6424 74.2808L12.6256 73.0557H12.827L15.6464 70.186H16.8715L13.8675 73.2236H13.7836L12.6424 74.2808ZM11.7194 76.6303V68.0379H12.7095V76.6303H11.7194ZM15.8142 76.6303L13.2969 73.4417L14.0018 72.7537L17.0729 76.6303H15.8142ZM20.4985 76.7646C19.9167 76.7646 19.4063 76.6261 18.9671 76.3492C18.5308 76.0723 18.1896 75.6849 17.9434 75.1871C17.7001 74.6892 17.5784 74.1074 17.5784 73.4417C17.5784 72.7704 17.7001 72.1845 17.9434 71.6838C18.1896 71.1832 18.5308 70.7944 18.9671 70.5175C19.4063 70.2406 19.9167 70.1021 20.4985 70.1021C21.0803 70.1021 21.5893 70.2406 22.0257 70.5175C22.4648 70.7944 22.806 71.1832 23.0494 71.6838C23.2955 72.1845 23.4186 72.7704 23.4186 73.4417C23.4186 74.1074 23.2955 74.6892 23.0494 75.1871C22.806 75.6849 22.4648 76.0723 22.0257 76.3492C21.5893 76.6261 21.0803 76.7646 20.4985 76.7646ZM20.4985 75.8751C20.9404 75.8751 21.304 75.7618 21.5893 75.5353C21.8746 75.3087 22.0858 75.0108 22.2229 74.6416C22.3599 74.2724 22.4284 73.8725 22.4284 73.4417C22.4284 73.011 22.3599 72.6096 22.2229 72.2376C22.0858 71.8656 21.8746 71.5649 21.5893 71.3356C21.304 71.1062 20.9404 70.9916 20.4985 70.9916C20.0566 70.9916 19.693 71.1062 19.4077 71.3356C19.1224 71.5649 18.9112 71.8656 18.7741 72.2376C18.6371 72.6096 18.5686 73.011 18.5686 73.4417C18.5686 73.8725 18.6371 74.2724 18.7741 74.6416C18.9112 75.0108 19.1224 75.3087 19.4077 75.5353C19.693 75.7618 20.0566 75.8751 20.4985 75.8751ZM25.6516 76.6974C25.4446 76.6974 25.267 76.6233 25.1188 76.4751C24.9706 76.3268 24.8964 76.1492 24.8964 75.9422C24.8964 75.7353 24.9706 75.5577 25.1188 75.4094C25.267 75.2612 25.4446 75.1871 25.6516 75.1871C25.8586 75.1871 26.0362 75.2612 26.1845 75.4094C26.3327 75.5577 26.4068 75.7353 26.4068 75.9422C26.4068 76.0793 26.3719 76.2052 26.3019 76.3198C26.2348 76.4345 26.1439 76.5268 26.0292 76.5967C25.9173 76.6639 25.7915 76.6974 25.6516 76.6974ZM32.7483 71.6293L31.8589 71.881C31.8029 71.7328 31.7204 71.5887 31.6113 71.4489C31.505 71.3062 31.3596 71.1887 31.175 71.0964C30.9904 71.0041 30.7541 70.958 30.466 70.958C30.0716 70.958 29.7429 71.0489 29.48 71.2307C29.2199 71.4097 29.0898 71.6377 29.0898 71.9146C29.0898 72.1607 29.1793 72.3551 29.3583 72.4977C29.5374 72.6404 29.8171 72.7593 30.1974 72.8544L31.154 73.0893C31.7302 73.2292 32.1595 73.4431 32.442 73.7312C32.7245 74.0165 32.8658 74.3843 32.8658 74.8346C32.8658 75.2038 32.7595 75.5339 32.5469 75.8248C32.3372 76.1157 32.0435 76.345 31.6659 76.5128C31.2883 76.6807 30.8492 76.7646 30.3485 76.7646C29.6912 76.7646 29.1472 76.6219 28.7164 76.3366C28.2857 76.0513 28.013 75.6346 27.8983 75.0864L28.8381 74.8514C28.9276 75.1982 29.0968 75.4584 29.3458 75.6318C29.5975 75.8052 29.9261 75.8919 30.3317 75.8919C30.7932 75.8919 31.1596 75.794 31.4309 75.5982C31.705 75.3996 31.8421 75.1619 31.8421 74.885C31.8421 74.6612 31.7638 74.4738 31.6071 74.3228C31.4505 74.1689 31.21 74.0543 30.8855 73.9788L29.8115 73.727C29.2213 73.5872 28.7878 73.3704 28.5109 73.0767C28.2368 72.7802 28.0997 72.4096 28.0997 71.9649C28.0997 71.6013 28.2018 71.2796 28.406 70.9999C28.6129 70.7202 28.894 70.5007 29.2493 70.3413C29.6073 70.1818 30.0128 70.1021 30.466 70.1021C31.1037 70.1021 31.6043 70.242 31.968 70.5217C32.3344 70.8014 32.5945 71.1706 32.7483 71.6293ZM34.3562 79.0469V70.186H35.3128V71.2097H35.4303C35.503 71.0978 35.6037 70.9552 35.7324 70.7818C35.8638 70.6056 36.0512 70.4489 36.2946 70.3119C36.5407 70.172 36.8735 70.1021 37.2931 70.1021C37.8357 70.1021 38.314 70.2378 38.728 70.5091C39.1419 70.7804 39.465 71.165 39.6971 71.6628C39.9293 72.1607 40.0453 72.7481 40.0453 73.4249C40.0453 74.1074 39.9293 74.699 39.6971 75.1996C39.465 75.6975 39.1433 76.0835 38.7321 76.3576C38.321 76.6289 37.8469 76.7646 37.3099 76.7646C36.8959 76.7646 36.5645 76.696 36.3155 76.559C36.0666 76.4191 35.875 76.2611 35.7408 76.0849C35.6065 75.9059 35.503 75.7576 35.4303 75.6402H35.3464V79.0469H34.3562ZM35.3296 73.4082C35.3296 73.8948 35.4009 74.3242 35.5436 74.6962C35.6862 75.0654 35.8946 75.3549 36.1687 75.5647C36.4428 75.7716 36.7784 75.8751 37.1756 75.8751C37.5896 75.8751 37.935 75.766 38.2119 75.5479C38.4916 75.3269 38.7014 75.0304 38.8412 74.6584C38.9839 74.2836 39.0552 73.8669 39.0552 73.4082C39.0552 72.9551 38.9853 72.5467 38.8454 72.1831C38.7084 71.8167 38.5 71.5272 38.2203 71.3146C37.9434 71.0992 37.5952 70.9916 37.1756 70.9916C36.7728 70.9916 36.4344 71.0936 36.1603 71.2978C35.8862 71.4992 35.6792 71.7817 35.5394 72.1453C35.3995 72.5061 35.3296 72.9271 35.3296 73.4082ZM43.4521 76.7813C43.0437 76.7813 42.6731 76.7044 42.3403 76.5506C42.0074 76.394 41.7431 76.1688 41.5473 75.8751C41.3515 75.5786 41.2536 75.2206 41.2536 74.8011C41.2536 74.4319 41.3264 74.1326 41.4718 73.9032C41.6173 73.6711 41.8116 73.4893 42.055 73.3578C42.2983 73.2264 42.5668 73.1285 42.8605 73.0641C43.157 72.997 43.4549 72.9439 43.7542 72.9047C44.1457 72.8544 44.4632 72.8166 44.7065 72.7914C44.9527 72.7635 45.1317 72.7173 45.2436 72.653C45.3582 72.5886 45.4156 72.4768 45.4156 72.3173V72.2838C45.4156 71.8698 45.3023 71.5482 45.0757 71.3188C44.852 71.0895 44.5121 70.9748 44.0562 70.9748C43.5835 70.9748 43.2129 71.0783 42.9444 71.2852C42.6759 71.4922 42.4871 71.7132 42.378 71.9481L41.4382 71.6125C41.6061 71.2209 41.8298 70.916 42.1095 70.6979C42.392 70.4769 42.6997 70.3231 43.0325 70.2364C43.3682 70.1469 43.6982 70.1021 44.0227 70.1021C44.2297 70.1021 44.4674 70.1273 44.7359 70.1776C45.0072 70.2252 45.2687 70.3245 45.5205 70.4755C45.775 70.6265 45.9862 70.8545 46.154 71.1594C46.3218 71.4642 46.4057 71.8726 46.4057 72.3845V76.6303H45.4156V75.7576H45.3652C45.2981 75.8975 45.1862 76.0471 45.0296 76.2066C44.873 76.366 44.6646 76.5016 44.4045 76.6135C44.1443 76.7254 43.8269 76.7813 43.4521 76.7813ZM43.6031 75.8919C43.9947 75.8919 44.3247 75.815 44.5933 75.6611C44.8646 75.5073 45.0688 75.3087 45.2058 75.0654C45.3457 74.822 45.4156 74.5661 45.4156 74.2976V73.3914C45.3736 73.4417 45.2813 73.4879 45.1387 73.5298C44.9988 73.569 44.8366 73.604 44.652 73.6347C44.4702 73.6627 44.2926 73.6879 44.1192 73.7102C43.9486 73.7298 43.8101 73.7466 43.7038 73.7606C43.4465 73.7942 43.2059 73.8487 42.9822 73.9242C42.7612 73.9969 42.5822 74.1074 42.4452 74.2557C42.3109 74.4011 42.2438 74.5997 42.2438 74.8514C42.2438 75.1954 42.371 75.4556 42.6256 75.6318C42.8829 75.8052 43.2087 75.8919 43.6031 75.8919ZM50.8309 76.7646C50.2268 76.7646 49.7065 76.6219 49.2702 76.3366C48.8339 76.0513 48.4982 75.6584 48.2633 75.1577C48.0283 74.657 47.9109 74.085 47.9109 73.4417C47.9109 72.7872 48.0311 72.2096 48.2717 71.709C48.515 71.2055 48.8534 70.8125 49.287 70.5301C49.7233 70.2448 50.2324 70.1021 50.8141 70.1021C51.2673 70.1021 51.6756 70.186 52.0392 70.3538C52.4028 70.5217 52.7007 70.7566 52.9329 71.0587C53.165 71.3608 53.3091 71.7132 53.365 72.116H52.3749C52.2994 71.8223 52.1315 71.5621 51.8714 71.3356C51.6141 71.1062 51.2673 70.9916 50.8309 70.9916C50.4449 70.9916 50.1065 71.0922 49.8156 71.2936C49.5275 71.4922 49.3024 71.7733 49.1401 72.1369C48.9807 72.4977 48.901 72.9215 48.901 73.4082C48.901 73.906 48.9793 74.3396 49.1359 74.7088C49.2954 75.078 49.5191 75.3647 49.8072 75.5688C50.0981 75.773 50.4393 75.8751 50.8309 75.8751C51.0883 75.8751 51.3218 75.8304 51.5316 75.7409C51.7414 75.6514 51.919 75.5227 52.0644 75.3549C52.2098 75.1871 52.3133 74.9857 52.3749 74.7507H53.365C53.3091 75.1311 53.1706 75.4738 52.9497 75.7786C52.7315 76.0807 52.442 76.3212 52.0812 76.5002C51.7232 76.6765 51.3064 76.7646 50.8309 76.7646ZM57.5144 76.7646C56.8934 76.7646 56.3578 76.6275 55.9075 76.3534C55.46 76.0765 55.1145 75.6905 54.8712 75.1954C54.6307 74.6976 54.5104 74.1186 54.5104 73.4585C54.5104 72.7984 54.6307 72.2166 54.8712 71.7132C55.1145 71.2069 55.453 70.8125 55.8865 70.5301C56.3228 70.2448 56.8319 70.1021 57.4137 70.1021C57.7493 70.1021 58.0808 70.158 58.408 70.2699C58.7352 70.3818 59.0331 70.5636 59.3016 70.8153C59.5702 71.0643 59.7841 71.3943 59.9436 71.8055C60.103 72.2166 60.1827 72.7229 60.1827 73.3243V73.7438H55.2152V72.8879H59.1758C59.1758 72.5243 59.1031 72.1999 58.9576 71.9146C58.815 71.6293 58.6108 71.4041 58.3451 71.2391C58.0821 71.0741 57.7717 70.9916 57.4137 70.9916C57.0193 70.9916 56.6781 71.0895 56.39 71.2852C56.1047 71.4782 55.8851 71.73 55.7313 72.0404C55.5774 72.3509 55.5005 72.6837 55.5005 73.039V73.6095C55.5005 74.0962 55.5844 74.5088 55.7522 74.8472C55.9229 75.1829 56.1592 75.4388 56.4613 75.615C56.7634 75.7884 57.1144 75.8751 57.5144 75.8751C57.7745 75.8751 58.0094 75.8388 58.2192 75.766C58.4318 75.6905 58.615 75.5786 58.7688 75.4304C58.9226 75.2794 59.0415 75.092 59.1254 74.8682L60.082 75.1367C59.9813 75.4612 59.8121 75.7465 59.5743 75.9926C59.3366 76.2359 59.0429 76.4261 58.6933 76.5632C58.3437 76.6974 57.9507 76.7646 57.5144 76.7646Z" fill="#2C0140"/>
<g clip-path="url(#clip0_603_954)">
<rect x="0.640625" y="0.90741" width="60.5495" height="60.5495" rx="3.62883" fill="#2C0140"/>
<g filter="url(#filter0_d_603_954)">
<path d="M6.01401 20.3514C6.01401 21.6231 4.98311 22.654 3.71143 22.654C4.98311 22.654 6.01401 23.6849 6.01401 24.9566C6.01401 23.6849 7.04491 22.654 8.3166 22.654C7.04491 22.654 6.01401 21.6231 6.01401 20.3514Z" fill="#D9D9D9"/>
</g>
<g filter="url(#filter1_d_603_954)">
<path d="M51.8092 44.4007C51.8092 46.0021 50.511 47.3002 48.9097 47.3002C50.511 47.3002 51.8092 48.5984 51.8092 50.1998C51.8092 48.5984 53.1074 47.3002 54.7088 47.3002C53.1074 47.3002 51.8092 46.0021 51.8092 44.4007Z" fill="#D9D9D9"/>
</g>
<g filter="url(#filter2_d_603_954)">
<path d="M49.4215 8.92383C49.4215 10.5252 48.1234 11.8234 46.522 11.8234C48.1234 11.8234 49.4215 13.1216 49.4215 14.7229C49.4215 13.1216 50.7197 11.8234 52.3211 11.8234C50.7197 11.8234 49.4215 10.5252 49.4215 8.92383Z" fill="#D9D9D9"/>
</g>
<g filter="url(#filter3_d_603_954)">
<path d="M37.0561 51.3937C37.0561 53.6074 35.2615 55.4019 33.0479 55.4019C35.2615 55.4019 37.0561 57.1965 37.0561 59.4101C37.0561 57.1965 38.8506 55.4019 41.0643 55.4019C38.8506 55.4019 37.0561 53.6074 37.0561 51.3937Z" fill="#D9D9D9"/>
</g>
<g filter="url(#filter4_d_603_954)">
<path d="M11.4716 46.7885C11.4716 49.0022 9.67705 50.7967 7.46338 50.7967C9.67705 50.7967 11.4716 52.5913 11.4716 54.8049C11.4716 52.5913 13.2661 50.7967 15.4798 50.7967C13.2661 50.7967 11.4716 49.0022 11.4716 46.7885Z" fill="#D9D9D9"/>
</g>
<g filter="url(#filter5_d_603_954)">
<path d="M54.6239 24.9567C54.6239 27.1703 52.8294 28.9649 50.6157 28.9649C52.8294 28.9649 54.6239 30.7594 54.6239 32.9731C54.6239 30.7594 56.4185 28.9649 58.6321 28.9649C56.4185 28.9649 54.6239 27.1703 54.6239 24.9567Z" fill="#D9D9D9"/>
</g>
<g filter="url(#filter6_d_603_954)">
<path d="M25.1168 3.12476C25.1168 4.86743 23.7041 6.28015 21.9614 6.28015C23.7041 6.28015 25.1168 7.69287 25.1168 9.43555C25.1168 7.69287 26.5295 6.28015 28.2722 6.28015C26.5295 6.28015 25.1168 4.86743 25.1168 3.12476Z" fill="#D9D9D9"/>
</g>
<g filter="url(#filter7_d_603_954)">
<path d="M44.6181 21.8865C44.6181 23.394 43.2464 24.881 40.739 26.0124C38.2659 27.1283 34.8234 27.8281 31.0012 27.8281C27.179 27.8281 23.7365 27.1283 21.2634 26.0124C18.756 24.881 17.3843 23.394 17.3843 21.8865C17.3843 20.3791 18.756 18.8921 21.2634 17.7607C23.7365 16.6447 27.179 15.9449 31.0012 15.9449C34.8234 15.9449 38.2659 16.6447 40.739 17.7607C43.2464 18.8921 44.6181 20.3791 44.6181 21.8865Z" stroke="#D9D9D9" stroke-width="0.738408"/>
<path d="M44.6181 28.1973C44.6181 29.7048 43.2464 31.1918 40.739 32.3232C38.2659 33.4391 34.8234 34.1389 31.0012 34.1389C27.179 34.1389 23.7365 33.4391 21.2634 32.3232C18.756 31.1918 17.3843 29.7048 17.3843 28.1973C17.3843 26.6899 18.756 25.2028 21.2634 24.0715C23.7365 22.9555 27.179 22.2557 31.0012 22.2557C34.8234 22.2557 38.2659 22.9555 40.739 24.0715C43.2464 25.2028 44.6181 26.6899 44.6181 28.1973Z" stroke="#D9D9D9" stroke-width="0.738408"/>
<path d="M44.6181 34.5081C44.6181 36.0155 43.2464 37.5026 40.739 38.634C38.2659 39.7499 34.8234 40.4497 31.0012 40.4497C27.179 40.4497 23.7365 39.7499 21.2634 38.634C18.756 37.5026 17.3843 36.0155 17.3843 34.5081C17.3843 33.0007 18.756 31.5136 21.2634 30.3822C23.7365 29.2663 27.179 28.5665 31.0012 28.5665C34.8234 28.5665 38.2659 29.2663 40.739 30.3822C43.2464 31.5136 44.6181 33.0007 44.6181 34.5081Z" stroke="#D9D9D9" stroke-width="0.738408"/>
<path d="M44.6181 40.4778C44.6181 41.9852 43.2464 43.4723 40.739 44.6037C38.2659 45.7196 34.8234 46.4194 31.0012 46.4194C27.179 46.4194 23.7365 45.7196 21.2634 44.6037C18.756 43.4723 17.3843 41.9852 17.3843 40.4778C17.3843 38.9704 18.756 37.4833 21.2634 36.3519C23.7365 35.236 27.179 34.5362 31.0012 34.5362C34.8234 34.5362 38.2659 35.236 40.739 36.3519C43.2464 37.4833 44.6181 38.9704 44.6181 40.4778Z" stroke="#D9D9D9" stroke-width="0.738408"/>
</g>
</g>
<defs>
<filter id="filter0_d_603_954" x="1.4962" y="18.1362" width="9.03543" height="9.03561" filterUnits="userSpaceOnUse" color-interpolation-filters="sRGB">
<feFlood flood-opacity="0" result="BackgroundImageFix"/>
<feColorMatrix in="SourceAlpha" type="matrix" values="0 0 0 0 0 0 0 0 0 0 0 0 0 0 0 0 0 0 127 0" result="hardAlpha"/>
<feOffset/>
<feGaussianBlur stdDeviation="1.10761"/>
<feComposite in2="hardAlpha" operator="out"/>
<feColorMatrix type="matrix" values="0 0 0 0 1 0 0 0 0 1 0 0 0 0 1 0 0 0 0.37 0"/>
<feBlend mode="normal" in2="BackgroundImageFix" result="effect1_dropShadow_603_954"/>
<feBlend mode="normal" in="SourceGraphic" in2="effect1_dropShadow_603_954" result="shape"/>
</filter>
<filter id="filter1_d_603_954" x="46.6944" y="42.1855" width="10.2298" height="10.2296" filterUnits="userSpaceOnUse" color-interpolation-filters="sRGB">
<feFlood flood-opacity="0" result="BackgroundImageFix"/>
<feColorMatrix in="SourceAlpha" type="matrix" values="0 0 0 0 0 0 0 0 0 0 0 0 0 0 0 0 0 0 127 0" result="hardAlpha"/>
<feOffset/>
<feGaussianBlur stdDeviation="1.10761"/>
<feComposite in2="hardAlpha" operator="out"/>
<feColorMatrix type="matrix" values="0 0 0 0 1 0 0 0 0 1 0 0 0 0 1 0 0 0 0.37 0"/>
<feBlend mode="normal" in2="BackgroundImageFix" result="effect1_dropShadow_603_954"/>
<feBlend mode="normal" in="SourceGraphic" in2="effect1_dropShadow_603_954" result="shape"/>
</filter>
<filter id="filter2_d_603_954" x="44.3067" y="6.7086" width="10.2298" height="10.2296" filterUnits="userSpaceOnUse" color-interpolation-filters="sRGB">
<feFlood flood-opacity="0" result="BackgroundImageFix"/>
<feColorMatrix in="SourceAlpha" type="matrix" values="0 0 0 0 0 0 0 0 0 0 0 0 0 0 0 0 0 0 127 0" result="hardAlpha"/>
<feOffset/>
<feGaussianBlur stdDeviation="1.10761"/>
<feComposite in2="hardAlpha" operator="out"/>
<feColorMatrix type="matrix" values="0 0 0 0 1 0 0 0 0 1 0 0 0 0 1 0 0 0 0.37 0"/>
<feBlend mode="normal" in2="BackgroundImageFix" result="effect1_dropShadow_603_954"/>
<feBlend mode="normal" in="SourceGraphic" in2="effect1_dropShadow_603_954" result="shape"/>
</filter>
<filter id="filter3_d_603_954" x="30.8326" y="49.1785" width="12.4471" height="12.4469" filterUnits="userSpaceOnUse" color-interpolation-filters="sRGB">
<feFlood flood-opacity="0" result="BackgroundImageFix"/>
<feColorMatrix in="SourceAlpha" type="matrix" values="0 0 0 0 0 0 0 0 0 0 0 0 0 0 0 0 0 0 127 0" result="hardAlpha"/>
<feOffset/>
<feGaussianBlur stdDeviation="1.10761"/>
<feComposite in2="hardAlpha" operator="out"/>
<feColorMatrix type="matrix" values="0 0 0 0 1 0 0 0 0 1 0 0 0 0 1 0 0 0 0.37 0"/>
<feBlend mode="normal" in2="BackgroundImageFix" result="effect1_dropShadow_603_954"/>
<feBlend mode="normal" in="SourceGraphic" in2="effect1_dropShadow_603_954" result="shape"/>
</filter>
<filter id="filter4_d_603_954" x="5.24815" y="44.5733" width="12.4471" height="12.4469" filterUnits="userSpaceOnUse" color-interpolation-filters="sRGB">
<feFlood flood-opacity="0" result="BackgroundImageFix"/>
<feColorMatrix in="SourceAlpha" type="matrix" values="0 0 0 0 0 0 0 0 0 0 0 0 0 0 0 0 0 0 127 0" result="hardAlpha"/>
<feOffset/>
<feGaussianBlur stdDeviation="1.10761"/>
<feComposite in2="hardAlpha" operator="out"/>
<feColorMatrix type="matrix" values="0 0 0 0 1 0 0 0 0 1 0 0 0 0 1 0 0 0 0.37 0"/>
<feBlend mode="normal" in2="BackgroundImageFix" result="effect1_dropShadow_603_954"/>
<feBlend mode="normal" in="SourceGraphic" in2="effect1_dropShadow_603_954" result="shape"/>
</filter>
<filter id="filter5_d_603_954" x="48.4005" y="22.7414" width="12.4471" height="12.4469" filterUnits="userSpaceOnUse" color-interpolation-filters="sRGB">
<feFlood flood-opacity="0" result="BackgroundImageFix"/>
<feColorMatrix in="SourceAlpha" type="matrix" values="0 0 0 0 0 0 0 0 0 0 0 0 0 0 0 0 0 0 127 0" result="hardAlpha"/>
<feOffset/>
<feGaussianBlur stdDeviation="1.10761"/>
<feComposite in2="hardAlpha" operator="out"/>
<feColorMatrix type="matrix" values="0 0 0 0 1 0 0 0 0 1 0 0 0 0 1 0 0 0 0.37 0"/>
<feBlend mode="normal" in2="BackgroundImageFix" result="effect1_dropShadow_603_954"/>
<feBlend mode="normal" in="SourceGraphic" in2="effect1_dropShadow_603_954" result="shape"/>
</filter>
<filter id="filter6_d_603_954" x="19.7462" y="0.909531" width="10.741" height="10.7412" filterUnits="userSpaceOnUse" color-interpolation-filters="sRGB">
<feFlood flood-opacity="0" result="BackgroundImageFix"/>
<feColorMatrix in="SourceAlpha" type="matrix" values="0 0 0 0 0 0 0 0 0 0 0 0 0 0 0 0 0 0 127 0" result="hardAlpha"/>
<feOffset/>
<feGaussianBlur stdDeviation="1.10761"/>
<feComposite in2="hardAlpha" operator="out"/>
<feColorMatrix type="matrix" values="0 0 0 0 1 0 0 0 0 1 0 0 0 0 1 0 0 0 0.37 0"/>
<feBlend mode="normal" in2="BackgroundImageFix" result="effect1_dropShadow_603_954"/>
<feBlend mode="normal" in="SourceGraphic" in2="effect1_dropShadow_603_954" result="shape"/>
</filter>
<filter id="filter7_d_603_954" x="14.7999" y="13.3605" width="32.4026" height="35.6433" filterUnits="userSpaceOnUse" color-interpolation-filters="sRGB">
<feFlood flood-opacity="0" result="BackgroundImageFix"/>
<feColorMatrix in="SourceAlpha" type="matrix" values="0 0 0 0 0 0 0 0 0 0 0 0 0 0 0 0 0 0 127 0" result="hardAlpha"/>
<feOffset/>
<feGaussianBlur stdDeviation="1.10761"/>
<feComposite in2="hardAlpha" operator="out"/>
<feColorMatrix type="matrix" values="0 0 0 0 1 0 0 0 0 1 0 0 0 0 1 0 0 0 0.37 0"/>
<feBlend mode="normal" in2="BackgroundImageFix" result="effect1_dropShadow_603_954"/>
<feBlend mode="normal" in="SourceGraphic" in2="effect1_dropShadow_603_954" result="shape"/>
</filter>
<clipPath id="clip0_603_954">
<rect x="0.640625" y="0.90741" width="60.5495" height="60.5495" rx="3.62883" fill="white"/>
</clipPath>
</defs>
</svg>
