<?xml version="1.0" standalone="no"?>
<!DOCTYPE svg PUBLIC "-//W3C//DTD SVG 20010904//EN"
 "http://www.w3.org/TR/2001/REC-SVG-20010904/DTD/svg10.dtd">
<svg version="1.0" xmlns="http://www.w3.org/2000/svg"
 width="700.000000pt" height="700.000000pt" viewBox="0 0 700.000000 700.000000"
 preserveAspectRatio="xMidYMid meet">
<metadata>
Created by potrace 1.14, written by Peter Selinger 2001-2017
</metadata>
<g transform="translate(0.000000,700.000000) scale(0.100000,-0.100000)"
fill="#000000" stroke="none">
<path d="M2028 5894 c-5 -4 -8 -20 -8 -36 0 -16 -7 -64 -15 -106 -99 -489
-456 -890 -927 -1041 -98 -31 -239 -60 -307 -62 -25 -1 -28 -3 -11 -6 182 -27
240 -40 329 -69 318 -106 593 -331 764 -629 80 -139 149 -343 163 -483 8 -70
24 -94 24 -35 0 61 46 245 86 345 70 176 158 312 291 449 163 168 348 285 556
353 106 34 252 65 321 67 17 1 -14 7 -68 15 -428 58 -801 310 -1019 689 -80
138 -147 340 -164 490 -5 37 -11 63 -15 59z"/>
<path d="M4778 5124 c-5 -4 -8 -24 -8 -44 0 -20 -9 -87 -20 -150 -145 -804
-817 -1431 -1630 -1523 l-115 -13 80 -8 c122 -11 309 -51 426 -91 469 -163
850 -497 1073 -942 93 -185 167 -432 183 -611 3 -40 9 -75 13 -77 4 -2 10 30
14 71 24 292 168 652 364 913 310 411 809 691 1314 737 l83 8 -117 13 c-622
71 -1175 459 -1458 1023 -97 194 -168 429 -187 623 -4 44 -11 75 -15 71z"/>
<path d="M2520 2641 c0 -50 -50 -203 -92 -281 -129 -241 -356 -405 -626 -454
-43 -8 -65 -15 -51 -15 15 -1 70 -12 123 -26 243 -61 456 -235 566 -460 41
-84 80 -210 80 -257 0 -48 17 -30 24 25 23 183 150 396 313 528 121 97 332
185 458 190 17 1 3 5 -30 10 -284 41 -540 227 -665 484 -41 84 -80 210 -80
257 0 16 -4 28 -10 28 -5 0 -10 -13 -10 -29z"/>
</g>
</svg>
