<svg width="18" height="16" viewBox="0 0 18 16" fill="none" xmlns="http://www.w3.org/2000/svg">
<g clip-path="url(#clip0_714_214)">
<path d="M4.16842 0C4.16842 2.28711 2.30216 4.14118 0 4.14118C2.30216 4.14118 4.16842 5.99524 4.16842 8.28235C4.16842 5.99524 6.03469 4.14118 8.33684 4.14118C6.03469 4.14118 4.16842 2.28711 4.16842 0Z" fill="#69009A" style="fill:#69009A;fill:color(display-p3 0.4123 0.0000 0.6041);fill-opacity:1;"/>
<path d="M12.5053 2.25885C12.5053 5.37763 9.96035 7.90591 6.82104 7.90591C9.96035 7.90591 12.5053 10.4342 12.5053 13.553C12.5053 10.4342 15.0502 7.90591 18.1895 7.90591C15.0502 7.90591 12.5053 5.37763 12.5053 2.25885Z" fill="#69009A" style="fill:#69009A;fill:color(display-p3 0.4123 0.0000 0.6041);fill-opacity:1;"/>
<path d="M5.68425 9.78821C5.68425 11.2436 4.49662 12.4235 3.03162 12.4235C4.49662 12.4235 5.68425 13.6034 5.68425 15.0588C5.68425 13.6034 6.87187 12.4235 8.33688 12.4235C6.87187 12.4235 5.68425 11.2436 5.68425 9.78821Z" fill="#69009A" style="fill:#69009A;fill:color(display-p3 0.4123 0.0000 0.6041);fill-opacity:1;"/>
</g>
<defs>
<clipPath id="clip0_714_214">
<rect width="18" height="16" fill="white" style="fill:white;fill-opacity:1;"/>
</clipPath>
</defs>
</svg>
